<?xml version="1.0" encoding="UTF-8" standalone="no"?>
<!-- Created with Inkscape (http://www.inkscape.org/) -->

<svg
   xmlns:dc="http://purl.org/dc/elements/1.1/"
   xmlns:cc="http://creativecommons.org/ns#"
   xmlns:rdf="http://www.w3.org/1999/02/22-rdf-syntax-ns#"
   xmlns:svg="http://www.w3.org/2000/svg"
   xmlns="http://www.w3.org/2000/svg"
   xmlns:xlink="http://www.w3.org/1999/xlink"
   xmlns:sodipodi="http://sodipodi.sourceforge.net/DTD/sodipodi-0.dtd"
   xmlns:inkscape="http://www.inkscape.org/namespaces/inkscape"
   width="850"
   height="850"
   viewBox="0 0 224.89582 224.89584"
   version="1.1"
   id="svg8"
   sodipodi:docname="nisar_realtors_glyph.svg"
   inkscape:version="0.92.2 (5c3e80d, 2017-08-06)">
  <defs
     id="defs2">
    <linearGradient
       inkscape:collect="always"
       id="linearGradient2250">
      <stop
         style="stop-color:#ffba08;stop-opacity:1"
         offset="0"
         id="stop2246" />
      <stop
         style="stop-color:#faa307;stop-opacity:1"
         offset="1"
         id="stop2248" />
    </linearGradient>
    <linearGradient
       inkscape:collect="always"
       xlink:href="#linearGradient2250"
       id="linearGradient2252"
       x1="113.01488"
       y1="298.13391"
       x2="113.01488"
       y2="164.70831"
       gradientUnits="userSpaceOnUse" />
    <filter
       style="color-interpolation-filters:sRGB"
       inkscape:label="Drop Shadow"
       id="filter3154">
      <feFlood
         flood-opacity="0.12549"
         flood-color="rgb(0,0,0)"
         result="flood"
         id="feFlood3144" />
      <feComposite
         in="flood"
         in2="SourceGraphic"
         operator="in"
         result="composite1"
         id="feComposite3146" />
      <feGaussianBlur
         in="composite1"
         stdDeviation="1"
         result="blur"
         id="feGaussianBlur3148" />
      <feOffset
         dx="1"
         dy="0"
         result="offset"
         id="feOffset3150" />
      <feComposite
         in="offset"
         in2="SourceGraphic"
         operator="out"
         result="composite2"
         id="feComposite3152" />
    </filter>
    <clipPath
       clipPathUnits="userSpaceOnUse"
       id="clipPath3180">
      <rect
         style="opacity:1;vector-effect:none;fill:#faa307;fill-opacity:1;stroke:none;stroke-width:3.10558939;stroke-linecap:butt;stroke-linejoin:miter;stroke-miterlimit:4;stroke-dasharray:none;stroke-dashoffset:0;stroke-opacity:1;paint-order:normal"
         id="rect3182"
         width="39.6875"
         height="161.48254"
         x="-115.29579"
         y="201.05209"
         transform="matrix(1,0,0.57346223,0.819232,0,0)" />
    </clipPath>
    <linearGradient
       gradientTransform="translate(-1.2270508e-6,9.3320313e-6)"
       inkscape:collect="always"
       xlink:href="#linearGradient2250"
       id="linearGradient2252-2"
       x1="113.01488"
       y1="298.13391"
       x2="113.01488"
       y2="164.70831"
       gradientUnits="userSpaceOnUse" />
    <filter
       style="color-interpolation-filters:sRGB"
       inkscape:label="Drop Shadow"
       id="filter3218">
      <feFlood
         flood-opacity="0.12549"
         flood-color="rgb(0,0,0)"
         result="flood"
         id="feFlood3208" />
      <feComposite
         in="flood"
         in2="SourceGraphic"
         operator="in"
         result="composite1"
         id="feComposite3210" />
      <feGaussianBlur
         in="composite1"
         stdDeviation="1"
         result="blur"
         id="feGaussianBlur3212" />
      <feOffset
         dx="-1"
         dy="0"
         result="offset"
         id="feOffset3214" />
      <feComposite
         in="offset"
         in2="SourceGraphic"
         operator="out"
         result="composite2"
         id="feComposite3216" />
    </filter>
    <clipPath
       clipPathUnits="userSpaceOnUse"
       id="clipPath3235">
      <rect
         style="opacity:1;vector-effect:none;fill:#faa307;fill-opacity:1;stroke:none;stroke-width:3.10558939;stroke-linecap:butt;stroke-linejoin:miter;stroke-miterlimit:4;stroke-dasharray:none;stroke-dashoffset:0;stroke-opacity:1;paint-order:normal"
         id="rect3237"
         width="39.6875"
         height="161.48254"
         x="-115.29578"
         y="201.05209"
         transform="matrix(1,0,0.57346223,0.819232,0,0)" />
    </clipPath>
    <linearGradient
       gradientTransform="translate(1.9658008e-5,5.4844727e-5)"
       inkscape:collect="always"
       xlink:href="#linearGradient2250"
       id="linearGradient2252-9"
       x1="113.01488"
       y1="298.13391"
       x2="113.01488"
       y2="164.70831"
       gradientUnits="userSpaceOnUse" />
    <filter
       style="color-interpolation-filters:sRGB"
       inkscape:label="Drop Shadow"
       id="filter3282">
      <feFlood
         flood-opacity="0.12549"
         flood-color="rgb(0,0,0)"
         result="flood"
         id="feFlood3272" />
      <feComposite
         in="flood"
         in2="SourceGraphic"
         operator="in"
         result="composite1"
         id="feComposite3274" />
      <feGaussianBlur
         in="composite1"
         stdDeviation="1"
         result="blur"
         id="feGaussianBlur3276" />
      <feOffset
         dx="1"
         dy="0"
         result="offset"
         id="feOffset3278" />
      <feComposite
         in="offset"
         in2="SourceGraphic"
         operator="out"
         result="composite2"
         id="feComposite3280" />
    </filter>
    <clipPath
       clipPathUnits="userSpaceOnUse"
       id="clipPath3322">
      <path
         inkscape:connector-curvature="0"
         style="opacity:1;vector-effect:none;fill:#faa307;fill-opacity:1;stroke:none;stroke-width:2.81091356;stroke-linecap:butt;stroke-linejoin:miter;stroke-miterlimit:4;stroke-dasharray:none;stroke-dashoffset:0;stroke-opacity:1;paint-order:normal"
         d="m 185.20831,192.48952 -92.60417,64.82292 v 39.6875 l 92.60417,-64.82292 z"
         id="path3324" />
    </clipPath>
    <linearGradient
       gradientTransform="translate(1.9883398e-5,4.86875e-5)"
       inkscape:collect="always"
       xlink:href="#linearGradient2250"
       id="linearGradient2252-5"
       x1="113.01488"
       y1="298.13391"
       x2="113.01488"
       y2="164.70831"
       gradientUnits="userSpaceOnUse" />
    <filter
       style="color-interpolation-filters:sRGB"
       inkscape:label="Drop Shadow"
       id="filter3373">
      <feFlood
         flood-opacity="0.12549"
         flood-color="rgb(0,0,0)"
         result="flood"
         id="feFlood3363" />
      <feComposite
         in="flood"
         in2="SourceGraphic"
         operator="in"
         result="composite1"
         id="feComposite3365" />
      <feGaussianBlur
         in="composite1"
         stdDeviation="1"
         result="blur"
         id="feGaussianBlur3367" />
      <feOffset
         dx="1"
         dy="0"
         result="offset"
         id="feOffset3369" />
      <feComposite
         in="offset"
         in2="SourceGraphic"
         operator="out"
         result="composite2"
         id="feComposite3371" />
    </filter>
    <clipPath
       clipPathUnits="userSpaceOnUse"
       id="clipPath3390">
      <rect
         style="opacity:1;vector-effect:none;fill:#f48c06;fill-opacity:1;stroke:none;stroke-width:2.13395238;stroke-linecap:butt;stroke-linejoin:miter;stroke-miterlimit:4;stroke-dasharray:none;stroke-dashoffset:0;stroke-opacity:1;paint-order:normal"
         id="rect3392"
         width="32.676041"
         height="92.604164"
         x="-197.38437"
         y="92.604164"
         transform="rotate(-90)" />
    </clipPath>
    <filter
       style="color-interpolation-filters:sRGB"
       inkscape:label="Drop Shadow"
       id="filter3443">
      <feFlood
         flood-opacity="0.12549"
         flood-color="rgb(0,0,0)"
         result="flood"
         id="feFlood3433" />
      <feComposite
         in="flood"
         in2="SourceGraphic"
         operator="in"
         result="composite1"
         id="feComposite3435" />
      <feGaussianBlur
         in="composite1"
         stdDeviation="1"
         result="blur"
         id="feGaussianBlur3437" />
      <feOffset
         dx="-1"
         dy="1"
         result="offset"
         id="feOffset3439" />
      <feComposite
         in="offset"
         in2="SourceGraphic"
         operator="out"
         result="composite2"
         id="feComposite3441" />
    </filter>
    <clipPath
       clipPathUnits="userSpaceOnUse"
       id="clipPath3460">
      <rect
         style="opacity:1;vector-effect:none;fill:#f48c06;fill-opacity:1;stroke:none;stroke-width:2.13395238;stroke-linecap:butt;stroke-linejoin:miter;stroke-miterlimit:4;stroke-dasharray:none;stroke-dashoffset:0;stroke-opacity:1;paint-order:normal"
         id="rect3462"
         width="32.676041"
         height="92.604164"
         x="-197.38437"
         y="132.29166"
         transform="rotate(-90)" />
    </clipPath>
    <filter
       style="color-interpolation-filters:sRGB"
       inkscape:label="Drop Shadow"
       id="filter3498">
      <feFlood
         flood-opacity="0.12549"
         flood-color="rgb(0,0,0)"
         result="flood"
         id="feFlood3488" />
      <feComposite
         in="flood"
         in2="SourceGraphic"
         operator="in"
         result="composite1"
         id="feComposite3490" />
      <feGaussianBlur
         in="composite1"
         stdDeviation="1"
         result="blur"
         id="feGaussianBlur3492" />
      <feOffset
         dx="1"
         dy="1"
         result="offset"
         id="feOffset3494" />
      <feComposite
         in="offset"
         in2="SourceGraphic"
         operator="out"
         result="composite2"
         id="feComposite3496" />
    </filter>
    <clipPath
       clipPathUnits="userSpaceOnUse"
       id="clipPath3515">
      <path
         inkscape:connector-curvature="0"
         style="opacity:1;vector-effect:none;fill:#f48c06;fill-opacity:1;stroke:none;stroke-width:2.81091356;stroke-linecap:butt;stroke-linejoin:miter;stroke-miterlimit:4;stroke-dasharray:none;stroke-dashoffset:0;stroke-opacity:1;paint-order:normal"
         d="m 137.98021,229.53124 47.22812,67.46875 h 39.6875 l -47.22812,-67.46875 z"
         id="path3517" />
    </clipPath>
    <linearGradient
       inkscape:collect="always"
       xlink:href="#linearGradient2250"
       id="linearGradient3567"
       gradientUnits="userSpaceOnUse"
       x1="113.01488"
       y1="298.13391"
       x2="113.01488"
       y2="164.70831" />
  </defs>
  <sodipodi:namedview
     id="base"
     pagecolor="#ffffff"
     bordercolor="#666666"
     borderopacity="1.0"
     inkscape:pageopacity="0.0"
     inkscape:pageshadow="2"
     inkscape:zoom="0.98994949"
     inkscape:cx="199.05896"
     inkscape:cy="172.95625"
     inkscape:document-units="mm"
     inkscape:current-layer="layer1"
     showgrid="false"
     units="px"
     inkscape:window-width="1920"
     inkscape:window-height="1027"
     inkscape:window-x="-8"
     inkscape:window-y="-8"
     inkscape:window-maximized="1" />
  <metadata
     id="metadata5">
    <rdf:RDF>
      <cc:Work
         rdf:about="">
        <dc:format>image/svg+xml</dc:format>
        <dc:type
           rdf:resource="http://purl.org/dc/dcmitype/StillImage" />
        <dc:title />
      </cc:Work>
    </rdf:RDF>
  </metadata>
  <g
     inkscape:label="Layer 1"
     inkscape:groupmode="layer"
     id="layer1"
     transform="translate(0,-72.104153)">
    <g
       id="g3565"
       transform="translate(0,-92.604165)">
      <path
         inkscape:connector-curvature="0"
         id="rect849-1-5"
         transform="matrix(0.26458333,0,0,0.26458333,0,164.70832)"
         d="M 521.5,245 700,500 H 850 L 671.5,245 Z"
         style="opacity:1;vector-effect:none;fill:#f48c06;fill-opacity:1;stroke:none;stroke-width:10.62392521;stroke-linecap:butt;stroke-linejoin:miter;stroke-miterlimit:4;stroke-dasharray:none;stroke-dashoffset:0;stroke-opacity:1;paint-order:normal" />
      <rect
         transform="rotate(-90)"
         y="132.29167"
         x="-197.38437"
         height="92.604164"
         width="32.676041"
         id="rect849-3-1"
         style="opacity:1;vector-effect:none;fill:#f48c06;fill-opacity:1;stroke:none;stroke-width:2.13395214;stroke-linecap:butt;stroke-linejoin:miter;stroke-miterlimit:4;stroke-dasharray:none;stroke-dashoffset:0;stroke-opacity:1;paint-order:normal" />
      <path
         inkscape:connector-curvature="0"
         transform="matrix(0.26458333,0,0,0.26458333,0,164.70832)"
         id="rect849-1-5-7"
         d="M 850,0 500,245 V 395 L 850,150 Z"
         style="opacity:1;vector-effect:none;fill:#faa307;fill-opacity:1;stroke:none;stroke-width:10.62392521;stroke-linecap:butt;stroke-linejoin:miter;stroke-miterlimit:4;stroke-dasharray:none;stroke-dashoffset:0;stroke-opacity:1;paint-order:normal" />
      <rect
         transform="matrix(1,0,0.57346224,0.81923199,0,0)"
         y="201.05209"
         x="-115.29579"
         height="161.48254"
         width="39.6875"
         id="rect849-1"
         style="opacity:1;vector-effect:none;fill:#faa307;fill-opacity:1;stroke:none;stroke-width:3.10558939;stroke-linecap:butt;stroke-linejoin:miter;stroke-miterlimit:4;stroke-dasharray:none;stroke-dashoffset:0;stroke-opacity:1;paint-order:normal" />
      <rect
         y="164.70831"
         x="0"
         height="132.29167"
         width="39.6875"
         id="rect849-4"
         style="opacity:1;vector-effect:none;fill:#ffba08;fill-opacity:1;stroke:none;stroke-width:2.81091356;stroke-linecap:butt;stroke-linejoin:miter;stroke-miterlimit:4;stroke-dasharray:none;stroke-dashoffset:0;stroke-opacity:1;paint-order:normal" />
      <rect
         y="164.70828"
         x="92.604141"
         height="132.29167"
         width="39.6875"
         id="rect849-3"
         style="opacity:1;vector-effect:none;fill:url(#linearGradient3567);fill-opacity:1;stroke:none;stroke-width:2.81091356;stroke-linecap:butt;stroke-linejoin:miter;stroke-miterlimit:4;stroke-dasharray:none;stroke-dashoffset:0;stroke-opacity:1;paint-order:normal" />
      <rect
         clip-path="url(#clipPath3180)"
         y="164.70831"
         x="-2.3841858e-007"
         height="132.29167"
         width="39.6875"
         id="rect849-4-8"
         style="opacity:1;vector-effect:none;fill:#ffba08;fill-opacity:1;stroke:none;stroke-width:2.81091356;stroke-linecap:butt;stroke-linejoin:miter;stroke-miterlimit:4;stroke-dasharray:none;stroke-dashoffset:0;stroke-opacity:1;paint-order:normal;filter:url(#filter3154)" />
      <rect
         clip-path="url(#clipPath3235)"
         y="164.70828"
         x="92.604141"
         height="132.29167"
         width="39.6875"
         id="rect849-3-5"
         style="opacity:1;vector-effect:none;fill:url(#linearGradient2252-2);fill-opacity:1;stroke:none;stroke-width:2.81091356;stroke-linecap:butt;stroke-linejoin:miter;stroke-miterlimit:4;stroke-dasharray:none;stroke-dashoffset:0;stroke-opacity:1;paint-order:normal;filter:url(#filter3218)" />
      <rect
         clip-path="url(#clipPath3322)"
         y="164.70833"
         x="92.604164"
         height="132.29167"
         width="39.6875"
         id="rect849-3-13"
         style="opacity:1;vector-effect:none;fill:url(#linearGradient2252-9);fill-opacity:1;stroke:none;stroke-width:2.81091356;stroke-linecap:butt;stroke-linejoin:miter;stroke-miterlimit:4;stroke-dasharray:none;stroke-dashoffset:0;stroke-opacity:1;paint-order:normal;filter:url(#filter3282)" />
      <rect
         clip-path="url(#clipPath3390)"
         y="164.70833"
         x="92.604164"
         height="132.29167"
         width="39.6875"
         id="rect849-3-9"
         style="opacity:1;vector-effect:none;fill:url(#linearGradient2252-5);fill-opacity:1;stroke:none;stroke-width:2.81091356;stroke-linecap:butt;stroke-linejoin:miter;stroke-miterlimit:4;stroke-dasharray:none;stroke-dashoffset:0;stroke-opacity:1;paint-order:normal;filter:url(#filter3373)" />
      <path
         clip-path="url(#clipPath3460)"
         id="rect849-1-5-7-1"
         d="m 224.89583,164.70832 -92.60417,64.82292 v 39.6875 l 92.60417,-64.82292 z"
         style="opacity:1;vector-effect:none;fill:#faa307;fill-opacity:1;stroke:none;stroke-width:2.81091356;stroke-linecap:butt;stroke-linejoin:miter;stroke-miterlimit:4;stroke-dasharray:none;stroke-dashoffset:0;stroke-opacity:1;paint-order:normal;filter:url(#filter3443)"
         inkscape:connector-curvature="0" />
      <path
         clip-path="url(#clipPath3515)"
         id="rect849-1-5-7-0"
         d="m 224.89583,164.70832 -92.60417,64.82292 v 39.6875 l 92.60417,-64.82292 z"
         style="opacity:1;vector-effect:none;fill:#faa307;fill-opacity:1;stroke:none;stroke-width:2.81091356;stroke-linecap:butt;stroke-linejoin:miter;stroke-miterlimit:4;stroke-dasharray:none;stroke-dashoffset:0;stroke-opacity:1;paint-order:normal;filter:url(#filter3498)"
         inkscape:connector-curvature="0" />
    </g>
    <g
       aria-label="NISAR"
       style="font-style:normal;font-variant:normal;font-weight:normal;font-stretch:normal;font-size:78.02008057px;line-height:1.25;font-family:'Californian FB';-inkscape-font-specification:'Californian FB, Normal';font-variant-ligatures:normal;font-variant-caps:normal;font-variant-numeric:normal;font-feature-settings:normal;text-align:start;letter-spacing:0px;word-spacing:0px;writing-mode:lr-tb;text-anchor:start;fill:#000000;fill-opacity:1;stroke:none;stroke-width:0.18285955"
       id="text3531">
      <path
         d="m 53.981675,211.61521 q 0,0.45715 -0.380957,0.45715 H 48.30541 q -0.800011,0 -0.800011,1.02858 0,0.30477 -0.07619,10.40014 -0.07619,10.05728 -0.07619,10.89538 0,0.80002 -0.152383,13.60018 -0.152383,12.80017 -0.152383,13.4859 0,1.7905 -0.457149,1.7905 -0.53334,0 -0.876202,-0.45715 -3.466712,-4.64768 -20.533605,-26.40035 -6.057223,-8.11439 -14.247808,-18.09548 -0.53334,-0.45715 -0.723819,0.30477 -0.114287,0.49524 -0.5714358,13.98113 -0.4190532,13.63828 -0.4190532,17.10499 0,10.13347 2.019074,10.13347 h 5.066734 q 0.380958,0 0.380958,0.30477 v 1.40954 q 0,0.30476 -0.304766,0.30476 H 1.4095508 q -0.49524464,0 -0.49524464,-0.22857 v -1.40954 q 0,-0.38096 0.49524464,-0.38096 h 4.6857763 q 0.6095319,0 0.6095319,-0.57144 v -5.60007 q 0,-2.24765 0.5333404,-18.24786 0.5714361,-16.00021 0.5714361,-16.30498 0,-7.04771 -4.8381592,-7.04771 H 0.30477428 q -0.3047659353497,0 -0.3047659353497,-0.38096 v -1.25716 q 0,-0.38095 0.3809574253497,-0.38095 H 12.41922 q 0.495245,0 0.838107,0.60953 0.342861,0.60953 6.285797,8.60963 5.981032,7.96201 6.742947,8.87631 8.533446,11.35253 18.095477,23.42888 0.152383,0.11429 0.304766,0.11429 0.26667,0 0.342862,-1.06668 0.0381,-0.72382 0,-13.48589 -0.0381,-12.80017 -0.07619,-13.82876 -0.571436,-11.23824 -2.742893,-11.23824 h -5.219117 q -0.495244,0 -0.495244,-0.38096 v -1.25716 q 0,-0.38095 0.419053,-0.38095 h 16.609744 q 0.457148,0 0.457148,0.30476 z"
         style="font-style:normal;font-variant:normal;font-weight:normal;font-stretch:normal;font-size:78.02008057px;font-family:'Californian FB';-inkscape-font-specification:'Californian FB, Normal';font-variant-ligatures:normal;font-variant-caps:normal;font-variant-numeric:normal;font-feature-settings:normal;text-align:start;writing-mode:lr-tb;text-anchor:start;stroke-width:0.18285955"
         id="path1677" />
      <path
         d="m 77.867705,261.55873 q 0,0.30476 -0.228574,0.30476 H 59.162696 q -0.342862,0 -0.419053,-0.11428 -0.07619,-0.11429 -0.07619,-0.26667 v -1.18097 q 0,-0.34286 0.114287,-0.38096 0.114288,-0.0762 0.266671,-0.0762 h 5.181021 q 0.53334,0 0.53334,-1.10478 l -0.07619,-39.39099 q 0,-7.2001 -1.333351,-7.2001 h -4.838159 q -0.53334,0 -0.53334,-0.38096 v -1.33335 q 0,-0.30476 0.380957,-0.30476 H 76.83912 q 0.342862,0 0.342862,0.30476 v 1.40955 q 0,0.30476 -0.419053,0.30476 h -5.3715 q -0.685723,0 -0.685723,0.80001 -0.07619,34.59094 -0.07619,35.73381 0,5.63817 0.0381,6.43818 0.26667,4.72387 1.52383,4.72387 h 5.371499 q 0.304766,0 0.304766,0.30477 z"
         style="font-style:normal;font-variant:normal;font-weight:normal;font-stretch:normal;font-size:78.02008057px;font-family:'Californian FB';-inkscape-font-specification:'Californian FB, Normal';font-variant-ligatures:normal;font-variant-caps:normal;font-variant-numeric:normal;font-feature-settings:normal;text-align:start;writing-mode:lr-tb;text-anchor:start;stroke-width:0.18285955"
         id="path1679" />
      <path
         d="m 115.4682,247.57759 q 0,6.32389 -4.03815,10.40014 -4.30482,4.26672 -12.4954,4.26672 -9.600127,0 -13.562084,-3.50481 -0.457149,-0.41905 -0.457149,-1.56192 0,-0.26667 -0.0381,-4.4572 -0.0381,-4.19053 -0.0381,-4.4953 0,-0.49525 0.533341,-0.49525 h 1.561925 q 0.457149,0 0.53334,0.49525 0.07619,0.49524 0.228575,2.40003 0.228574,4.11434 3.047659,6.70485 1.333351,1.21907 3.809575,2.05717 2.476223,0.83811 4.457201,0.83811 7.619149,0 10.171559,-5.06674 1.14288,-2.36193 1.14288,-5.86674 0,-3.12385 -2.17146,-5.3715 -2.43813,-2.51432 -8.495351,-4.68578 -6.857234,-2.43812 -9.75251,-4.91435 -3.84767,-3.23814 -3.84767,-10.13346 0,-6.47628 5.257212,-10.93348 4.000053,-3.42862 10.514429,-3.42862 4.30482,0 8.0001,1.44764 2.36194,0.9143 3.46671,1.90479 0.53335,0.38095 0.60954,1.02858 0.41905,2.89528 0.41905,7.77153 0,0.80001 -0.22857,0.80001 h -1.8286 q -0.26667,0 -0.38096,-0.45715 -0.22857,-1.10477 -0.53334,-2.89527 -0.57143,-2.62861 -2.6667,-3.80958 -3.84767,-2.20955 -8.876308,-2.20955 -4.533393,0 -6.704851,1.94288 -2.285744,2.01908 -2.285744,7.12391 0,3.12385 2.133361,5.44769 1.028585,1.14287 4.000053,2.43813 2.476224,0.99049 4.952449,2.01907 4.91435,2.13336 5.79055,2.62861 2.85718,1.56192 4.83816,3.77147 2.93337,3.31433 2.93337,8.80012 z"
         style="font-style:normal;font-variant:normal;font-weight:normal;font-stretch:normal;font-size:78.02008057px;font-family:'Californian FB';-inkscape-font-specification:'Californian FB, Normal';font-variant-ligatures:normal;font-variant-caps:normal;font-variant-numeric:normal;font-feature-settings:normal;text-align:start;writing-mode:lr-tb;text-anchor:start;stroke-width:0.18285955"
         id="path1681" />
      <path
         d="m 170.63084,261.48254 q 0,0.38095 -0.22858,0.38095 h -17.56214 q -0.38095,0 -0.38095,-0.45714 v -1.02859 q 0,-0.53334 0.38095,-0.53334 h 5.21912 q 0.60953,0 0.49524,-0.68572 -0.34286,-1.21907 -2.6286,-7.92392 -2.28575,-6.74294 -2.51432,-7.23819 -0.30477,-0.76191 -0.80001,-0.76191 h -18.40024 q -0.34287,0.0762 -0.57144,0.45715 -0.53334,1.02858 -1.8286,4.83816 -1.29525,3.77147 -1.60002,5.14292 -0.60953,3.04766 -0.60953,3.65719 0,2.51432 0.60953,2.51432 h 5.79056 q 0.45714,0 0.45714,0.53334 v 1.10478 q 0,0.38095 -0.38095,0.38095 h -15.39068 q -0.38096,0 -0.38096,-0.38095 v -1.25716 q 0,-0.38096 0.30477,-0.38096 h 3.27623 q 0.83811,0 2.24765,-3.581 1.44764,-3.581 8.53344,-20.68599 4.5334,-10.78109 11.00967,-26.13368 0.41906,-1.18096 0.83811,-1.33335 1.06668,-0.30476 2.74289,-0.95239 0.26667,-0.11429 0.60954,0.41905 0.34286,0.49525 -0.30477,1.14287 -1.14287,1.18097 -1.14287,2.28575 -0.0381,1.14287 0.53334,2.85718 2.05717,5.71436 7.42867,21.40981 5.3715,15.65735 7.46676,20.26693 2.01908,4.30482 2.89528,4.30482 h 3.581 q 0.30477,0 0.30477,0.53334 z m -18.8574,-21.71458 q -1.56192,-4.53339 -3.35242,-9.94298 -1.7905,-5.4096 -3.69529,-11.27634 -0.11429,-0.49525 -0.30477,-0.60954 -0.15238,0.15239 -0.38095,0.60954 -4.76197,11.65729 -6.85724,16.53355 -2.05717,4.87625 -2.05717,5.02864 0,0.22857 0.34286,0.22857 h 16.1145 q 0.38096,0 0.19048,-0.57144 z"
         style="font-style:normal;font-variant:normal;font-weight:normal;font-stretch:normal;font-size:78.02008057px;font-family:'Californian FB';-inkscape-font-specification:'Californian FB, Normal';font-variant-ligatures:normal;font-variant-caps:normal;font-variant-numeric:normal;font-feature-settings:normal;text-align:start;writing-mode:lr-tb;text-anchor:start;stroke-width:0.18285955"
         id="path1683" />
      <path
         d="m 223.6982,261.40635 q 0,0.45714 -0.30476,0.45714 h -12.38112 q -0.41905,0 -0.95239,-0.45714 -1.44764,-1.25716 -5.33341,-6.40009 -2.05717,-2.78099 -4.11434,-5.56198 -2.28574,-3.42861 -6.32389,-10.66681 -0.26667,-0.64762 -0.60953,-0.64762 -1.7905,0 -6.32389,-0.45715 -0.60954,-0.19048 -0.60954,0.38096 0,0.72381 0.0381,4.83816 0.0381,4.07624 0.0381,8.60963 0,8.34297 1.71431,8.34297 h 6.78105 q 0.38095,0 0.38095,0.38096 v 1.25716 q 0,0.38095 -0.30476,0.38095 h -20.19075 q -0.34286,0 -0.41905,-0.11428 -0.0762,-0.11429 -0.0762,-0.26667 v -1.18097 q 0,-0.34286 0.11429,-0.38096 0.11428,-0.0762 0.30476,-0.0762 h 4.99054 q 0.60954,0 0.60954,-1.18097 v -20.34312 q 0,-15.77164 0,-15.77164 -0.0762,-10.47633 -1.33335,-10.47633 h -4.83816 q -0.38096,0 -0.38096,-0.30477 v -1.40954 q 0,-0.30476 0.30476,-0.30476 h 11.39063 q 0.53334,0 4.34292,-0.15239 3.84767,-0.15238 4.30481,-0.15238 2.47623,0 4.83816,0.38096 5.25722,0.8381 8.45726,3.92386 3.73338,3.5429 3.73338,8.9525 0,6.17151 -3.65719,10.13347 -2.24765,2.43812 -7.35248,4.15243 -0.30476,0.15238 -0.22857,0.45715 1.67621,4.38101 7.73343,11.23824 3.16195,3.581 4.60959,5.14293 2.55241,2.6667 4.34291,4.00005 2.43813,1.7905 6.09532,1.7905 0.60953,0 0.60953,0.30477 z m -18.47643,-36.38144 q 0,-5.06673 -3.35243,-8.26677 -4.68577,-4.41911 -13.56208,-4.41911 -1.29526,0 -1.40954,0.53334 0,10.93348 -0.15239,13.63828 0,0 0,8.68583 0,0.41905 0.53334,0.53334 0.87621,0.15238 4.83816,0.15238 1.63812,0 3.65719,-0.30477 2.05717,-0.30476 1.8667,-0.30476 7.58105,-1.98098 7.58105,-10.24776 z"
         style="font-style:normal;font-variant:normal;font-weight:normal;font-stretch:normal;font-size:78.02008057px;font-family:'Californian FB';-inkscape-font-specification:'Californian FB, Normal';font-variant-ligatures:normal;font-variant-caps:normal;font-variant-numeric:normal;font-feature-settings:normal;text-align:start;writing-mode:lr-tb;text-anchor:start;stroke-width:0.18285955"
         id="path1685" />
    </g>
    <g
       aria-label="REALTORS"
       style="font-style:normal;font-variant:normal;font-weight:bold;font-stretch:normal;font-size:43.88629532px;line-height:1.25;font-family:'Californian FB';-inkscape-font-specification:'Californian FB, Bold';font-variant-ligatures:normal;font-variant-caps:normal;font-variant-numeric:normal;font-feature-settings:normal;text-align:start;letter-spacing:0px;word-spacing:0px;writing-mode:lr-tb;text-anchor:start;fill:#000000;fill-opacity:1;stroke:none;stroke-width:0.18285955"
       id="text3535">
      <path
         d="m 29.271819,296.39999 q 0,0.25715 -0.19286,0.25715 h -7.628673 q -0.514292,0 -0.835725,-0.25715 -1.135729,-0.9643 -5.571502,-6.72866 -2.014313,-2.61432 -3.471475,-5.74293 -0.150002,-0.34287 -0.342861,-0.34287 -1.178587,-0.10714 -2.9357536,-0.27857 -0.3642905,-0.0429 -0.3642905,0.32143 0,-0.38572 0.021429,1.99288 0.021429,2.37861 0.021429,4.92864 0,4.69292 1.0071562,4.69292 h 3.5143322 q 0.235717,0 0.235717,0.23572 v 0.9643 q 0,0.21429 -0.192859,0.21429 H 0.6000104 q -0.30000397,0 -0.30000397,-0.21429 v -0.92144 q 0,-0.27858 0.25714626,-0.27858 H 3.0643287 q 0.3857194,0 0.3857194,-0.64287 v -11.37872 q 0,-8.33582 0,-8.33582 -0.042858,-5.78579 -0.7714388,-5.78579 H 0.21429101 q -0.2142885550337,0 -0.2142885550337,-0.21429 v -0.9643 q 0,-0.21429 0.1714308450337,-0.23572 l 6.7500894,-0.17143 q 3.3857593,-0.0857 5.1000673,-0.0857 1.842882,0 3.064326,0.17143 3.150042,0.45 5.228641,2.25003 2.357174,2.03574 2.357174,5.03578 0,3.38576 -2.314316,5.70007 -1.328589,1.32859 -4.135769,2.33575 -0.171431,0.0857 -0.128573,0.25715 1.885739,3.36433 4.435773,6.10722 1.992883,2.12146 2.657178,2.80718 1.435733,1.43573 2.485747,2.14288 1.435733,1.00716 3.192899,1.00716 0.407149,0 0.407149,0.27858 z M 17.978812,276.02115 q 0,-2.85004 -1.885739,-4.65006 -2.485748,-2.35718 -7.2858111,-2.35718 -0.7500099,0 -0.8357253,0.42858 0,5.89293 -0.085716,7.41438 0,0 0,4.56435 0,0.34286 0.3214329,0.40715 0.8142965,0.12857 2.400032,0.0857 2.142885,-0.0643 3.17147,-0.36429 4.200056,-1.15716 4.200056,-5.52864 z"
         style="font-style:normal;font-variant:normal;font-weight:bold;font-stretch:normal;font-size:43.88629532px;font-family:'Californian FB';-inkscape-font-specification:'Californian FB, Bold';font-variant-ligatures:normal;font-variant-caps:normal;font-variant-numeric:normal;font-feature-settings:normal;text-align:start;writing-mode:lr-tb;text-anchor:start;stroke-width:0.18285955"
         id="path1688" />
      <path
         d="m 55.157876,292.92851 q -0.900012,1.56431 -2.014312,3.47148 -0.171431,0.25715 -0.492864,0.25715 H 31.371847 q -0.214288,0 -0.214288,-0.25715 v -0.92144 q 0,-0.23572 0.17143,-0.23572 h 3.342902 q 0.278575,0 0.342861,-0.0857 0.08572,-0.10715 0.08572,-0.34287 0,-0.19286 -0.04286,-6.45008 -0.04286,-6.27866 -0.04286,-6.47152 0,-0.21428 -0.02143,-4.24291 -0.02143,-4.05005 -0.02143,-4.28577 0,-4.35006 -0.878583,-4.35006 h -2.721465 q -0.214288,0 -0.214288,-0.21429 v -0.98572 q 0,-0.10715 0.04286,-0.15001 0.04286,-0.0643 0.214289,-0.0643 h 20.143124 q 0.407148,0 1.135729,-0.0429 0.728581,-0.0429 0.707152,-0.0429 0.278575,0 0.214289,0.21429 -0.38572,1.41431 -0.964299,3.21433 -0.192859,0.47143 -0.428577,0.47143 0.02143,0 -0.407148,-0.38572 -0.921441,-0.87858 -2.635749,-1.17858 -4.435773,-0.79287 -9.300123,-0.83573 -0.342862,0 -0.342862,0.25715 -0.08571,7.37152 -0.08571,10.54299 0,0.42858 0.342861,0.42858 h 9.492983 q 0.257146,0 0.342862,-0.34286 0.150002,-1.13573 0.342861,-2.50718 0,-0.40714 0.278576,-0.40714 h 0.878583 q 0.300004,0 0.300004,0.36429 0,0.0857 -0.08572,1.80002 -0.08572,1.69288 -0.08572,2.01431 0,0.32144 0.04286,2.25003 0.04286,1.9286 0.04286,2.05717 0,0.47144 -0.278575,0.47144 h -0.921441 q -0.257146,0 -0.257146,-0.30001 0,-0.87858 -0.257146,-3.25718 -0.04286,-0.42858 -0.407149,-0.42858 -0.17143,0 -4.757205,-0.0857 -4.585775,-0.0857 -4.714349,-0.0857 -0.257146,0 -0.257146,0.38572 v 8.20725 q 0,4.92864 1.13573,4.92864 9.150121,0 13.307319,-2.20717 0.985727,-0.5143 1.007156,-0.5143 0.06429,0 0.171431,0.12858 0.107144,0.12857 0.04286,0.21428 z"
         style="font-style:normal;font-variant:normal;font-weight:bold;font-stretch:normal;font-size:43.88629532px;font-family:'Californian FB';-inkscape-font-specification:'Californian FB, Bold';font-variant-ligatures:normal;font-variant-caps:normal;font-variant-numeric:normal;font-feature-settings:normal;text-align:start;writing-mode:lr-tb;text-anchor:start;stroke-width:0.18285955"
         id="path1690" />
      <path
         d="m 85.393988,296.44285 q 0,0.21429 -0.128573,0.21429 H 74.765276 q -0.128573,0 -0.128573,-0.25715 v -0.83573 q 0,-0.32143 0.278575,-0.32143 h 2.571463 q 0.321433,0 0.278575,-0.38572 -0.02143,-0.0643 -0.04286,-0.17143 -0.128573,-0.42858 -1.414304,-4.07148 -1.350018,-3.75005 -1.50002,-4.05006 -0.150002,-0.45 -0.471435,-0.45 H 64.115135 q -0.257146,0.0643 -0.36429,0.27857 -1.071443,3.06433 -1.757166,5.4215 -0.514293,1.54288 -0.642866,2.7429 0.04286,0.68572 0.385719,0.68572 h 3.214329 q 0.257146,0 0.257146,0.32143 v 0.87859 q 0,0.21429 -0.214289,0.21429 h -9.085834 q -0.235718,0 -0.235718,-0.21429 v -0.9643 q 0,-0.23572 0.19286,-0.23572 h 1.607164 q 0.407148,0 1.071443,-1.2643 2.507176,-5.89294 5.164354,-12.10731 4.907208,-11.20729 5.571502,-12.60016 0.578579,-1.17859 0.921441,-2.10003 0.278575,-0.70715 0.492864,-0.75001 1.071442,-0.17143 2.550033,-0.49286 0.257147,-0.0857 0.300004,-0.0857 0.171431,0 0.321433,0.17143 0.150002,0.17143 0.150002,0.40715 -0.107144,0.15 -0.214288,0.27858 -0.08572,0.10714 -0.428577,0.55715 -0.407149,0.53572 -0.407149,0.92144 0,0.38572 0.321433,1.62859 0.342862,1.4143 2.142886,5.95722 0.300004,0.75001 2.721464,7.5001 2.228601,6.21437 3.857194,9.5787 1.178587,2.40003 1.671451,2.40003 h 1.542877 q 0.171431,0 0.171431,0.32143 z M 73.886693,284.27126 q -0.257146,-0.77144 -2.014312,-5.61436 -0.771439,-2.44289 -1.628593,-5.1215 -0.214289,-0.75001 -0.514293,-0.75001 -0.300004,0 -0.578579,0.75001 -0.814296,1.97145 -1.800024,4.39292 -1.242873,2.91432 -2.635749,6.21436 -0.08571,0.27858 -0.08571,0.34287 0.02143,0.10714 0.171431,0.10714 h 9.000119 q 0.192859,0 0.08571,-0.32143 z"
         style="font-style:normal;font-variant:normal;font-weight:bold;font-stretch:normal;font-size:43.88629532px;font-family:'Californian FB';-inkscape-font-specification:'Californian FB, Bold';font-variant-ligatures:normal;font-variant-caps:normal;font-variant-numeric:normal;font-feature-settings:normal;text-align:start;writing-mode:lr-tb;text-anchor:start;stroke-width:0.18285955"
         id="path1692" />
      <path
         d="m 111.38719,293.05709 q 0,0.32143 -0.83573,1.71431 -0.0214,0.0428 -0.75001,1.45716 -0.21429,0.42858 -0.47143,0.42858 H 87.644016 q -0.257146,0 -0.257146,-0.21429 v -0.9643 q 0,-0.23572 0.214288,-0.23572 h 2.850038 q 0.385719,0 0.385719,-0.42858 0,0.0214 -0.06429,-1.73573 -0.06429,-1.75717 -0.06429,-3.0429 0,-1.99288 0.08572,-8.6144 0.107144,-6.62152 0.107144,-7.84296 0,-4.56435 -0.878583,-4.56435 h -1.992884 q -0.342861,0 -0.342861,-0.27857 v -0.85716 q 0,-0.27857 0.300004,-0.27857 h 12.171592 q 0.21429,0 0.21429,0.17143 v 1.02858 q 0,0.21429 -0.17144,0.21429 h -4.007191 q -0.364291,0 -0.428577,0.30001 -0.06429,0.27857 -0.19286,10.28585 -0.107144,9.27869 -0.107144,10.73585 0,4.9715 1.135729,4.9715 5.164353,0 7.800103,-0.23572 3.00004,-0.23572 6.02151,-2.01431 0.51429,-0.30001 0.70715,-0.30001 0.25715,0.15001 0.25715,0.30001 z"
         style="font-style:normal;font-variant:normal;font-weight:bold;font-stretch:normal;font-size:43.88629532px;font-family:'Californian FB';-inkscape-font-specification:'Californian FB, Bold';font-variant-ligatures:normal;font-variant-caps:normal;font-variant-numeric:normal;font-feature-settings:normal;text-align:start;writing-mode:lr-tb;text-anchor:start;stroke-width:0.18285955"
         id="path1694" />
      <path
         d="m 139.13756,267.8139 q -0.15,1.02858 -0.79287,3.47147 -0.0857,0.32143 -0.53572,0.32143 -0.49286,0 -0.66429,-0.36429 -0.42858,-0.92144 -1.43573,-1.17858 -0.70716,-0.19286 -3.72863,-0.45001 -2.87146,-0.25715 -3.90005,-0.25715 -0.3,0 -0.32143,0.30001 -0.25715,5.55007 -0.25715,19.7574 0,5.82865 1.00716,5.82865 h 3.42862 q 0.12857,0 0.12857,0.19286 v 1.00716 q 0,0.21429 -0.12857,0.21429 h -12.38588 q -0.21429,0 -0.21429,-0.21429 v -0.9643 q 0,-0.23572 0.21429,-0.23572 h 3.12861 q 0.38572,0 0.38572,-0.47143 0,-0.0643 -0.0429,-2.18575 -0.0429,-2.12145 -0.0429,-2.55003 0,-0.36429 0.10714,-7.30724 0.10714,-6.96438 0.10714,-7.26438 0,-6.15008 -0.70715,-6.15008 -4.95006,0 -7.97153,0.87858 -0.70715,0.21429 -1.39288,0.92144 -0.68572,0.68572 -0.94287,0.75001 -0.64286,0.0857 -0.83572,-0.17143 -0.17143,-0.19286 0.12857,-0.70715 0.55715,-1.88574 1.1143,-3.42862 0.0857,-0.27858 0.47144,-0.21429 0.36429,0.0429 5.29292,0.25715 5.2715,0.21429 7.13581,0.21429 6.21437,0 11.6573,-0.17143 0.64286,-0.0214 1.20001,-0.0857 0.49287,-0.0857 0.47144,-0.0857 0.32143,0 0.32143,0.34287 z"
         style="font-style:normal;font-variant:normal;font-weight:bold;font-stretch:normal;font-size:43.88629532px;font-family:'Californian FB';-inkscape-font-specification:'Californian FB, Bold';font-variant-ligatures:normal;font-variant-caps:normal;font-variant-numeric:normal;font-feature-settings:normal;text-align:start;writing-mode:lr-tb;text-anchor:start;stroke-width:0.18285955"
         id="path1696" />
      <path
         d="m 171.04513,281.46408 q 0,6.42865 -3.36433,10.58585 -2.31432,2.85004 -6.27866,4.11434 -2.31431,0.75001 -5.48578,0.75001 -5.03579,0 -8.03583,-1.43573 -2.01431,-0.9643 -3.3429,-2.42146 -3.32147,-3.64291 -3.32147,-10.67157 0,-2.95718 0.83573,-5.48579 0.94287,-2.87147 3.02146,-5.1215 2.0786,-2.25003 5.52865,-3.51433 2.63575,-0.9643 5.74293,-0.9643 4.58578,0 7.32867,1.17859 2.87147,1.24287 4.47863,3.3429 2.8929,3.77148 2.8929,9.64299 z m -4.90721,1.07144 q 0,-3.30004 -0.57858,-5.31436 -0.68572,-2.44289 -2.35717,-4.56434 -1.37145,-1.73574 -3.51434,-2.67861 -2.29288,-1.00716 -4.6072,-1.00716 -2.78575,0 -4.35006,1.00716 -2.2286,1.43573 -3.32147,4.11434 -1.24287,2.97861 -1.24287,7.15724 0,6.21437 2.16431,9.8787 1.2643,2.16431 3.94291,3.51433 2.01431,1.00716 4.56435,1.00716 2.6786,0 5.03578,-1.67145 1.82145,-1.2643 3.12861,-4.35006 1.13573,-2.67861 1.13573,-7.09295 z"
         style="font-style:normal;font-variant:normal;font-weight:bold;font-stretch:normal;font-size:43.88629532px;font-family:'Californian FB';-inkscape-font-specification:'Californian FB, Bold';font-variant-ligatures:normal;font-variant-caps:normal;font-variant-numeric:normal;font-feature-settings:normal;text-align:start;writing-mode:lr-tb;text-anchor:start;stroke-width:0.18285955"
         id="path1698" />
      <path
         d="m 203.44556,296.39999 q 0,0.25715 -0.19286,0.25715 h -7.62868 q -0.51429,0 -0.83572,-0.25715 -1.13573,-0.9643 -5.5715,-6.72866 -2.01432,-2.61432 -3.47148,-5.74293 -0.15,-0.34287 -0.34286,-0.34287 -1.17859,-0.10714 -2.93575,-0.27857 -0.36429,-0.0429 -0.36429,0.32143 0,-0.38572 0.0214,1.99288 0.0214,2.37861 0.0214,4.92864 0,4.69292 1.00716,4.69292 h 3.51433 q 0.23572,0 0.23572,0.23572 v 0.9643 q 0,0.21429 -0.19286,0.21429 h -11.93587 q -0.30001,0 -0.30001,-0.21429 v -0.92144 q 0,-0.27858 0.25715,-0.27858 h 2.50718 q 0.38571,0 0.38571,-0.64287 v -11.37872 q 0,-8.33582 0,-8.33582 -0.0429,-5.78579 -0.77143,-5.78579 h -2.46432 q -0.21429,0 -0.21429,-0.21429 v -0.9643 q 0,-0.21429 0.17143,-0.23572 l 6.75009,-0.17143 q 3.38576,-0.0857 5.10007,-0.0857 1.84288,0 3.06432,0.17143 3.15004,0.45 5.22864,2.25003 2.35718,2.03574 2.35718,5.03578 0,3.38576 -2.31432,5.70007 -1.32859,1.32859 -4.13577,2.33575 -0.17143,0.0857 -0.12857,0.25715 1.88574,3.36433 4.43577,6.10722 1.99289,2.12146 2.65718,2.80718 1.43573,1.43573 2.48575,2.14288 1.43573,1.00716 3.1929,1.00716 0.40715,0 0.40715,0.27858 z m -11.29301,-20.37884 q 0,-2.85004 -1.88574,-4.65006 -2.48575,-2.35718 -7.28581,-2.35718 -0.75001,0 -0.83573,0.42858 0,5.89293 -0.0857,7.41438 0,0 0,4.56435 0,0.34286 0.32143,0.40715 0.8143,0.12857 2.40003,0.0857 2.14289,-0.0643 3.17147,-0.36429 4.20006,-1.15716 4.20006,-5.52864 z"
         style="font-style:normal;font-variant:normal;font-weight:bold;font-stretch:normal;font-size:43.88629532px;font-family:'Californian FB';-inkscape-font-specification:'Californian FB, Bold';font-variant-ligatures:normal;font-variant-caps:normal;font-variant-numeric:normal;font-feature-settings:normal;text-align:start;writing-mode:lr-tb;text-anchor:start;stroke-width:0.18285955"
         id="path1700" />
      <path
         d="m 224.89584,288.94275 q 0,3.21433 -2.59289,5.61436 -1.45716,1.32859 -3.12861,1.88574 Q 217.39574,297 214.41713,297 q -4.26434,0 -8.07868,-2.01432 -0.32143,-0.15 -0.32143,-0.87858 0,-0.15 -0.0214,-2.61432 -0.0214,-2.46432 -0.0214,-2.65718 0,-0.25714 0.45001,-0.25714 h 0.87858 q 0.38572,0 0.42858,0.25714 0,0.79287 0.12857,1.54288 0.34286,1.9286 1.99289,3.36433 1.67145,1.41431 4.6072,1.41431 3.98577,0 5.48579,-2.57147 0.64286,-1.15716 0.64286,-3.04289 0,-1.69288 -1.17859,-2.72147 -1.15715,-1.32859 -4.56434,-2.40003 -3.79291,-1.20002 -6.0858,-3.15004 -2.29288,-1.97146 -2.29288,-5.89294 0,-3.62147 3.1929,-6.19294 2.48574,-1.97145 6.45008,-1.97145 4.37149,0 6.85723,1.9286 0.34287,0.27857 0.38572,0.57857 0.23572,1.41431 0.23572,4.41435 0,0.45 -0.19286,0.45 h -1.05001 q -0.23572,0 -0.30001,-0.25714 -0.17143,-0.75001 -0.45,-1.6286 -0.40715,-1.30716 -1.56431,-2.12145 -1.99288,-1.35002 -5.10007,-1.35002 -2.3786,0 -3.68576,1.2643 -1.45716,1.43574 -1.39287,3.72862 0.0428,1.54288 1.39287,3.00004 0.68572,0.72858 4.92864,2.40004 2.5286,1.00715 3.66433,1.60716 1.90717,1.00716 3.21433,2.31432 1.84288,1.84288 1.84288,5.40007 z"
         style="font-style:normal;font-variant:normal;font-weight:bold;font-stretch:normal;font-size:43.88629532px;font-family:'Californian FB';-inkscape-font-specification:'Californian FB, Bold';font-variant-ligatures:normal;font-variant-caps:normal;font-variant-numeric:normal;font-feature-settings:normal;text-align:start;writing-mode:lr-tb;text-anchor:start;stroke-width:0.18285955"
         id="path1702" />
    </g>
  </g>
</svg>
