<?xml version="1.0" encoding="UTF-8" standalone="no"?>
<!-- Created with Inkscape (http://www.inkscape.org/) -->

<svg
   xmlns:dc="http://purl.org/dc/elements/1.1/"
   xmlns:cc="http://creativecommons.org/ns#"
   xmlns:rdf="http://www.w3.org/1999/02/22-rdf-syntax-ns#"
   xmlns:svg="http://www.w3.org/2000/svg"
   xmlns="http://www.w3.org/2000/svg"
   xmlns:xlink="http://www.w3.org/1999/xlink"
   xmlns:sodipodi="http://sodipodi.sourceforge.net/DTD/sodipodi-0.dtd"
   xmlns:inkscape="http://www.inkscape.org/namespaces/inkscape"
   width="850"
   height="850"
   viewBox="0 0 224.89582 224.89584"
   version="1.1"
   id="svg8"
   sodipodi:docname="nisar_realtors-dark.svg"
   inkscape:version="0.92.2 (5c3e80d, 2017-08-06)">
  <defs
     id="defs2">
    <linearGradient
       inkscape:collect="always"
       id="linearGradient2250">
      <stop
         style="stop-color:#ffba08;stop-opacity:1"
         offset="0"
         id="stop2246" />
      <stop
         style="stop-color:#faa307;stop-opacity:1"
         offset="1"
         id="stop2248" />
    </linearGradient>
    <linearGradient
       inkscape:collect="always"
       xlink:href="#linearGradient2250"
       id="linearGradient2252"
       x1="113.01488"
       y1="298.13391"
       x2="113.01488"
       y2="164.70831"
       gradientUnits="userSpaceOnUse" />
    <filter
       style="color-interpolation-filters:sRGB"
       inkscape:label="Drop Shadow"
       id="filter3154">
      <feFlood
         flood-opacity="0.12549"
         flood-color="rgb(0,0,0)"
         result="flood"
         id="feFlood3144" />
      <feComposite
         in="flood"
         in2="SourceGraphic"
         operator="in"
         result="composite1"
         id="feComposite3146" />
      <feGaussianBlur
         in="composite1"
         stdDeviation="1"
         result="blur"
         id="feGaussianBlur3148" />
      <feOffset
         dx="1"
         dy="0"
         result="offset"
         id="feOffset3150" />
      <feComposite
         in="offset"
         in2="SourceGraphic"
         operator="out"
         result="composite2"
         id="feComposite3152" />
    </filter>
    <clipPath
       clipPathUnits="userSpaceOnUse"
       id="clipPath3180">
      <rect
         style="opacity:1;vector-effect:none;fill:#faa307;fill-opacity:1;stroke:none;stroke-width:3.10558939;stroke-linecap:butt;stroke-linejoin:miter;stroke-miterlimit:4;stroke-dasharray:none;stroke-dashoffset:0;stroke-opacity:1;paint-order:normal"
         id="rect3182"
         width="39.6875"
         height="161.48254"
         x="-115.29579"
         y="201.05209"
         transform="matrix(1,0,0.57346223,0.819232,0,0)" />
    </clipPath>
    <linearGradient
       gradientTransform="translate(-1.2270508e-6,9.3320313e-6)"
       inkscape:collect="always"
       xlink:href="#linearGradient2250"
       id="linearGradient2252-2"
       x1="113.01488"
       y1="298.13391"
       x2="113.01488"
       y2="164.70831"
       gradientUnits="userSpaceOnUse" />
    <filter
       style="color-interpolation-filters:sRGB"
       inkscape:label="Drop Shadow"
       id="filter3218">
      <feFlood
         flood-opacity="0.12549"
         flood-color="rgb(0,0,0)"
         result="flood"
         id="feFlood3208" />
      <feComposite
         in="flood"
         in2="SourceGraphic"
         operator="in"
         result="composite1"
         id="feComposite3210" />
      <feGaussianBlur
         in="composite1"
         stdDeviation="1"
         result="blur"
         id="feGaussianBlur3212" />
      <feOffset
         dx="-1"
         dy="0"
         result="offset"
         id="feOffset3214" />
      <feComposite
         in="offset"
         in2="SourceGraphic"
         operator="out"
         result="composite2"
         id="feComposite3216" />
    </filter>
    <clipPath
       clipPathUnits="userSpaceOnUse"
       id="clipPath3235">
      <rect
         style="opacity:1;vector-effect:none;fill:#faa307;fill-opacity:1;stroke:none;stroke-width:3.10558939;stroke-linecap:butt;stroke-linejoin:miter;stroke-miterlimit:4;stroke-dasharray:none;stroke-dashoffset:0;stroke-opacity:1;paint-order:normal"
         id="rect3237"
         width="39.6875"
         height="161.48254"
         x="-115.29578"
         y="201.05209"
         transform="matrix(1,0,0.57346223,0.819232,0,0)" />
    </clipPath>
    <linearGradient
       gradientTransform="translate(1.9658008e-5,5.4844727e-5)"
       inkscape:collect="always"
       xlink:href="#linearGradient2250"
       id="linearGradient2252-9"
       x1="113.01488"
       y1="298.13391"
       x2="113.01488"
       y2="164.70831"
       gradientUnits="userSpaceOnUse" />
    <filter
       style="color-interpolation-filters:sRGB"
       inkscape:label="Drop Shadow"
       id="filter3282">
      <feFlood
         flood-opacity="0.12549"
         flood-color="rgb(0,0,0)"
         result="flood"
         id="feFlood3272" />
      <feComposite
         in="flood"
         in2="SourceGraphic"
         operator="in"
         result="composite1"
         id="feComposite3274" />
      <feGaussianBlur
         in="composite1"
         stdDeviation="1"
         result="blur"
         id="feGaussianBlur3276" />
      <feOffset
         dx="1"
         dy="0"
         result="offset"
         id="feOffset3278" />
      <feComposite
         in="offset"
         in2="SourceGraphic"
         operator="out"
         result="composite2"
         id="feComposite3280" />
    </filter>
    <clipPath
       clipPathUnits="userSpaceOnUse"
       id="clipPath3322">
      <path
         inkscape:connector-curvature="0"
         style="opacity:1;vector-effect:none;fill:#faa307;fill-opacity:1;stroke:none;stroke-width:2.81091356;stroke-linecap:butt;stroke-linejoin:miter;stroke-miterlimit:4;stroke-dasharray:none;stroke-dashoffset:0;stroke-opacity:1;paint-order:normal"
         d="m 185.20831,192.48952 -92.60417,64.82292 v 39.6875 l 92.60417,-64.82292 z"
         id="path3324" />
    </clipPath>
    <linearGradient
       gradientTransform="translate(1.9883398e-5,4.86875e-5)"
       inkscape:collect="always"
       xlink:href="#linearGradient2250"
       id="linearGradient2252-5"
       x1="113.01488"
       y1="298.13391"
       x2="113.01488"
       y2="164.70831"
       gradientUnits="userSpaceOnUse" />
    <filter
       style="color-interpolation-filters:sRGB"
       inkscape:label="Drop Shadow"
       id="filter3373">
      <feFlood
         flood-opacity="0.12549"
         flood-color="rgb(0,0,0)"
         result="flood"
         id="feFlood3363" />
      <feComposite
         in="flood"
         in2="SourceGraphic"
         operator="in"
         result="composite1"
         id="feComposite3365" />
      <feGaussianBlur
         in="composite1"
         stdDeviation="1"
         result="blur"
         id="feGaussianBlur3367" />
      <feOffset
         dx="1"
         dy="0"
         result="offset"
         id="feOffset3369" />
      <feComposite
         in="offset"
         in2="SourceGraphic"
         operator="out"
         result="composite2"
         id="feComposite3371" />
    </filter>
    <clipPath
       clipPathUnits="userSpaceOnUse"
       id="clipPath3390">
      <rect
         style="opacity:1;vector-effect:none;fill:#f48c06;fill-opacity:1;stroke:none;stroke-width:2.13395238;stroke-linecap:butt;stroke-linejoin:miter;stroke-miterlimit:4;stroke-dasharray:none;stroke-dashoffset:0;stroke-opacity:1;paint-order:normal"
         id="rect3392"
         width="32.676041"
         height="92.604164"
         x="-197.38437"
         y="92.604164"
         transform="rotate(-90)" />
    </clipPath>
    <filter
       style="color-interpolation-filters:sRGB"
       inkscape:label="Drop Shadow"
       id="filter3443">
      <feFlood
         flood-opacity="0.12549"
         flood-color="rgb(0,0,0)"
         result="flood"
         id="feFlood3433" />
      <feComposite
         in="flood"
         in2="SourceGraphic"
         operator="in"
         result="composite1"
         id="feComposite3435" />
      <feGaussianBlur
         in="composite1"
         stdDeviation="1"
         result="blur"
         id="feGaussianBlur3437" />
      <feOffset
         dx="-1"
         dy="1"
         result="offset"
         id="feOffset3439" />
      <feComposite
         in="offset"
         in2="SourceGraphic"
         operator="out"
         result="composite2"
         id="feComposite3441" />
    </filter>
    <clipPath
       clipPathUnits="userSpaceOnUse"
       id="clipPath3460">
      <rect
         style="opacity:1;vector-effect:none;fill:#f48c06;fill-opacity:1;stroke:none;stroke-width:2.13395238;stroke-linecap:butt;stroke-linejoin:miter;stroke-miterlimit:4;stroke-dasharray:none;stroke-dashoffset:0;stroke-opacity:1;paint-order:normal"
         id="rect3462"
         width="32.676041"
         height="92.604164"
         x="-197.38437"
         y="132.29166"
         transform="rotate(-90)" />
    </clipPath>
    <filter
       style="color-interpolation-filters:sRGB"
       inkscape:label="Drop Shadow"
       id="filter3498">
      <feFlood
         flood-opacity="0.12549"
         flood-color="rgb(0,0,0)"
         result="flood"
         id="feFlood3488" />
      <feComposite
         in="flood"
         in2="SourceGraphic"
         operator="in"
         result="composite1"
         id="feComposite3490" />
      <feGaussianBlur
         in="composite1"
         stdDeviation="1"
         result="blur"
         id="feGaussianBlur3492" />
      <feOffset
         dx="1"
         dy="1"
         result="offset"
         id="feOffset3494" />
      <feComposite
         in="offset"
         in2="SourceGraphic"
         operator="out"
         result="composite2"
         id="feComposite3496" />
    </filter>
    <clipPath
       clipPathUnits="userSpaceOnUse"
       id="clipPath3515">
      <path
         inkscape:connector-curvature="0"
         style="opacity:1;vector-effect:none;fill:#f48c06;fill-opacity:1;stroke:none;stroke-width:2.81091356;stroke-linecap:butt;stroke-linejoin:miter;stroke-miterlimit:4;stroke-dasharray:none;stroke-dashoffset:0;stroke-opacity:1;paint-order:normal"
         d="m 137.98021,229.53124 47.22812,67.46875 h 39.6875 l -47.22812,-67.46875 z"
         id="path3517" />
    </clipPath>
    <linearGradient
       inkscape:collect="always"
       xlink:href="#linearGradient2250"
       id="linearGradient3567"
       gradientUnits="userSpaceOnUse"
       x1="113.01488"
       y1="298.13391"
       x2="113.01488"
       y2="164.70831" />
  </defs>
  <sodipodi:namedview
     id="base"
     pagecolor="#ffffff"
     bordercolor="#666666"
     borderopacity="1.0"
     inkscape:pageopacity="0.0"
     inkscape:pageshadow="2"
     inkscape:zoom="0.98994949"
     inkscape:cx="214.10364"
     inkscape:cy="240.45084"
     inkscape:document-units="mm"
     inkscape:current-layer="g3551"
     showgrid="false"
     units="px"
     inkscape:window-width="1920"
     inkscape:window-height="1027"
     inkscape:window-x="-8"
     inkscape:window-y="-8"
     inkscape:window-maximized="1" />
  <metadata
     id="metadata5">
    <rdf:RDF>
      <cc:Work
         rdf:about="">
        <dc:format>image/svg+xml</dc:format>
        <dc:type
           rdf:resource="http://purl.org/dc/dcmitype/StillImage" />
        <dc:title />
      </cc:Work>
    </rdf:RDF>
  </metadata>
  <g
     inkscape:label="Layer 1"
     inkscape:groupmode="layer"
     id="layer1"
     transform="translate(0,-72.104153)">
    <g
       id="g3565"
       transform="translate(0,-92.604165)">
      <path
         inkscape:connector-curvature="0"
         id="rect849-1-5"
         transform="matrix(0.26458333,0,0,0.26458333,0,164.70832)"
         d="M 521.5,245 700,500 H 850 L 671.5,245 Z"
         style="opacity:1;vector-effect:none;fill:#f48c06;fill-opacity:1;stroke:none;stroke-width:10.62392521;stroke-linecap:butt;stroke-linejoin:miter;stroke-miterlimit:4;stroke-dasharray:none;stroke-dashoffset:0;stroke-opacity:1;paint-order:normal" />
      <rect
         transform="rotate(-90)"
         y="132.29167"
         x="-197.38437"
         height="92.604164"
         width="32.676041"
         id="rect849-3-1"
         style="opacity:1;vector-effect:none;fill:#f48c06;fill-opacity:1;stroke:none;stroke-width:2.13395214;stroke-linecap:butt;stroke-linejoin:miter;stroke-miterlimit:4;stroke-dasharray:none;stroke-dashoffset:0;stroke-opacity:1;paint-order:normal" />
      <path
         inkscape:connector-curvature="0"
         transform="matrix(0.26458333,0,0,0.26458333,0,164.70832)"
         id="rect849-1-5-7"
         d="M 850,0 500,245 V 395 L 850,150 Z"
         style="opacity:1;vector-effect:none;fill:#faa307;fill-opacity:1;stroke:none;stroke-width:10.62392521;stroke-linecap:butt;stroke-linejoin:miter;stroke-miterlimit:4;stroke-dasharray:none;stroke-dashoffset:0;stroke-opacity:1;paint-order:normal" />
      <rect
         transform="matrix(1,0,0.57346224,0.81923199,0,0)"
         y="201.05209"
         x="-115.29579"
         height="161.48254"
         width="39.6875"
         id="rect849-1"
         style="opacity:1;vector-effect:none;fill:#faa307;fill-opacity:1;stroke:none;stroke-width:3.10558939;stroke-linecap:butt;stroke-linejoin:miter;stroke-miterlimit:4;stroke-dasharray:none;stroke-dashoffset:0;stroke-opacity:1;paint-order:normal" />
      <rect
         y="164.70831"
         x="0"
         height="132.29167"
         width="39.6875"
         id="rect849-4"
         style="opacity:1;vector-effect:none;fill:#ffba08;fill-opacity:1;stroke:none;stroke-width:2.81091356;stroke-linecap:butt;stroke-linejoin:miter;stroke-miterlimit:4;stroke-dasharray:none;stroke-dashoffset:0;stroke-opacity:1;paint-order:normal" />
      <rect
         y="164.70828"
         x="92.604141"
         height="132.29167"
         width="39.6875"
         id="rect849-3"
         style="opacity:1;vector-effect:none;fill:url(#linearGradient3567);fill-opacity:1;stroke:none;stroke-width:2.81091356;stroke-linecap:butt;stroke-linejoin:miter;stroke-miterlimit:4;stroke-dasharray:none;stroke-dashoffset:0;stroke-opacity:1;paint-order:normal" />
      <rect
         clip-path="url(#clipPath3180)"
         y="164.70831"
         x="-2.3841858e-007"
         height="132.29167"
         width="39.6875"
         id="rect849-4-8"
         style="opacity:1;vector-effect:none;fill:#ffba08;fill-opacity:1;stroke:none;stroke-width:2.81091356;stroke-linecap:butt;stroke-linejoin:miter;stroke-miterlimit:4;stroke-dasharray:none;stroke-dashoffset:0;stroke-opacity:1;paint-order:normal;filter:url(#filter3154)" />
      <rect
         clip-path="url(#clipPath3235)"
         y="164.70828"
         x="92.604141"
         height="132.29167"
         width="39.6875"
         id="rect849-3-5"
         style="opacity:1;vector-effect:none;fill:url(#linearGradient2252-2);fill-opacity:1;stroke:none;stroke-width:2.81091356;stroke-linecap:butt;stroke-linejoin:miter;stroke-miterlimit:4;stroke-dasharray:none;stroke-dashoffset:0;stroke-opacity:1;paint-order:normal;filter:url(#filter3218)" />
      <rect
         clip-path="url(#clipPath3322)"
         y="164.70833"
         x="92.604164"
         height="132.29167"
         width="39.6875"
         id="rect849-3-13"
         style="opacity:1;vector-effect:none;fill:url(#linearGradient2252-9);fill-opacity:1;stroke:none;stroke-width:2.81091356;stroke-linecap:butt;stroke-linejoin:miter;stroke-miterlimit:4;stroke-dasharray:none;stroke-dashoffset:0;stroke-opacity:1;paint-order:normal;filter:url(#filter3282)" />
      <rect
         clip-path="url(#clipPath3390)"
         y="164.70833"
         x="92.604164"
         height="132.29167"
         width="39.6875"
         id="rect849-3-9"
         style="opacity:1;vector-effect:none;fill:url(#linearGradient2252-5);fill-opacity:1;stroke:none;stroke-width:2.81091356;stroke-linecap:butt;stroke-linejoin:miter;stroke-miterlimit:4;stroke-dasharray:none;stroke-dashoffset:0;stroke-opacity:1;paint-order:normal;filter:url(#filter3373)" />
      <path
         clip-path="url(#clipPath3460)"
         id="rect849-1-5-7-1"
         d="m 224.89583,164.70832 -92.60417,64.82292 v 39.6875 l 92.60417,-64.82292 z"
         style="opacity:1;vector-effect:none;fill:#faa307;fill-opacity:1;stroke:none;stroke-width:2.81091356;stroke-linecap:butt;stroke-linejoin:miter;stroke-miterlimit:4;stroke-dasharray:none;stroke-dashoffset:0;stroke-opacity:1;paint-order:normal;filter:url(#filter3443)"
         inkscape:connector-curvature="0" />
      <path
         clip-path="url(#clipPath3515)"
         id="rect849-1-5-7-0"
         d="m 224.89583,164.70832 -92.60417,64.82292 v 39.6875 l 92.60417,-64.82292 z"
         style="opacity:1;vector-effect:none;fill:#faa307;fill-opacity:1;stroke:none;stroke-width:2.81091356;stroke-linecap:butt;stroke-linejoin:miter;stroke-miterlimit:4;stroke-dasharray:none;stroke-dashoffset:0;stroke-opacity:1;paint-order:normal;filter:url(#filter3498)"
         inkscape:connector-curvature="0" />
    </g>
    <g
       id="g3551"
       transform="matrix(0.69112276,0,0,0.69112276,-160.91641,93.199426)">
      <g
         aria-label="NISAR"
         style="font-style:normal;font-variant:normal;font-weight:normal;font-stretch:normal;font-size:112.8888855px;line-height:1.25;font-family:'Californian FB';-inkscape-font-specification:'Californian FB, Normal';font-variant-ligatures:normal;font-variant-caps:normal;font-variant-numeric:normal;font-feature-settings:normal;text-align:start;letter-spacing:0px;word-spacing:0px;writing-mode:lr-tb;text-anchor:start;fill:#ffffff;fill-opacity:1;stroke:none;stroke-width:0.26458332"
         id="text3531">
        <path
           d="m 310.94054,171.3383 q 0,0.66146 -0.55122,0.66146 h -7.66189 q -1.15755,0 -1.15755,1.48828 0,0.44097 -0.11024,15.04818 -0.11025,14.55208 -0.11025,15.76475 0,1.15756 -0.22048,19.67839 -0.22049,18.52083 -0.22049,19.51302 0,2.59071 -0.66146,2.59071 -0.7717,0 -1.26779,-0.66146 -5.01606,-6.72482 -29.7105,-38.19922 -8.76433,-11.74088 -20.61546,-26.18272 -0.7717,-0.66146 -1.0473,0.44097 -0.16537,0.71658 -0.82683,20.2296 -0.60633,19.73351 -0.60633,24.74957 0,14.66232 2.92144,14.66232 h 7.33116 q 0.55122,0 0.55122,0.44098 v 2.03949 q 0,0.44097 -0.44098,0.44097 h -21.66276 q -0.71658,0 -0.71658,-0.33072 v -2.0395 q 0,-0.55122 0.71658,-0.55122 h 6.77995 q 0.88195,0 0.88195,-0.82682 v -8.10286 q 0,-3.25217 0.7717,-26.40321 0.82682,-23.15105 0.82682,-23.59202 0,-10.19748 -7.00043,-10.19748 h -3.85851 q -0.44097,0 -0.44097,-0.55122 v -1.81901 q 0,-0.55121 0.55121,-0.55121 h 17.4184 q 0.71658,0 1.21268,0.88194 0.49609,0.88195 9.09505,12.45747 8.65408,11.5204 9.75651,12.84331 12.34722,16.42622 26.18272,33.89974 0.22049,0.16537 0.44098,0.16537 0.38585,0 0.49609,-1.54341 0.0551,-1.0473 0,-19.51302 -0.0551,-18.52083 -0.11024,-20.00911 -0.82683,-16.26085 -3.96875,-16.26085 h -7.55165 q -0.71658,0 -0.71658,-0.55122 v -1.81901 q 0,-0.55121 0.60634,-0.55121 h 24.03298 q 0.66146,0 0.66146,0.44097 z"
           style="font-style:normal;font-variant:normal;font-weight:normal;font-stretch:normal;font-size:112.8888855px;font-family:'Californian FB';-inkscape-font-specification:'Californian FB, Normal';font-variant-ligatures:normal;font-variant-caps:normal;font-variant-numeric:normal;font-feature-settings:normal;text-align:start;writing-mode:lr-tb;text-anchor:start;fill:#ffffff;fill-opacity:1;stroke-width:0.26458332"
           id="path973" />
        <path
           d="m 345.50173,243.60262 q 0,0.44097 -0.33073,0.44097 h -26.73394 q -0.49609,0 -0.60633,-0.16536 -0.11025,-0.16536 -0.11025,-0.38585 v -1.70877 q 0,-0.49609 0.16537,-0.55121 0.16536,-0.11025 0.38585,-0.11025 h 7.49653 q 0.7717,0 0.7717,-1.59852 l -0.11024,-56.99566 q 0,-10.41797 -1.92926,-10.41797 H 317.5 q -0.7717,0 -0.7717,-0.55121 v -1.92926 q 0,-0.44097 0.55121,-0.44097 h 26.73394 q 0.4961,0 0.4961,0.44097 v 2.0395 q 0,0.44097 -0.60634,0.44097 h -7.77214 q -0.99218,0 -0.99218,1.15755 -0.11025,50.05035 -0.11025,51.704 0,8.15798 0.0551,9.31553 0.38586,6.83507 2.20487,6.83507 h 7.77213 q 0.44097,0 0.44097,0.44098 z"
           style="font-style:normal;font-variant:normal;font-weight:normal;font-stretch:normal;font-size:112.8888855px;font-family:'Californian FB';-inkscape-font-specification:'Californian FB, Normal';font-variant-ligatures:normal;font-variant-caps:normal;font-variant-numeric:normal;font-feature-settings:normal;text-align:start;writing-mode:lr-tb;text-anchor:start;fill:#ffffff;fill-opacity:1;stroke-width:0.26458332"
           id="path975" />
        <path
           d="m 399.90668,223.37302 q 0,9.15018 -5.84288,15.04818 -6.22874,6.17361 -18.07986,6.17361 -13.89063,0 -19.62327,-5.07118 -0.66146,-0.60634 -0.66146,-2.25998 0,-0.38585 -0.0551,-6.44922 -0.0551,-6.06337 -0.0551,-6.50434 0,-0.71658 0.7717,-0.71658 h 2.25999 q 0.66145,0 0.7717,0.71658 0.11024,0.71658 0.33073,3.47265 0.33072,5.95313 4.40972,9.70139 1.92925,1.76389 5.51215,2.97657 3.5829,1.21267 6.44922,1.21267 11.0243,0 14.71745,-7.33116 1.65364,-3.41754 1.65364,-8.48872 0,-4.51996 -3.14192,-7.77213 -3.52778,-3.63803 -12.29211,-6.77995 -9.92187,-3.52778 -14.11111,-7.11068 -5.56727,-4.68533 -5.56727,-14.66232 0,-9.37066 7.60677,-15.81988 5.78776,-4.96094 15.21354,-4.96094 6.22873,0 11.57552,2.09462 3.41754,1.32291 5.01606,2.75607 0.7717,0.55122 0.88195,1.48829 0.60633,4.18923 0.60633,11.24479 0,1.15755 -0.33073,1.15755 h -2.64583 q -0.38585,0 -0.55122,-0.66146 -0.33072,-1.59852 -0.7717,-4.18924 -0.82682,-3.80338 -3.8585,-5.51215 -5.56728,-3.19705 -12.84332,-3.19705 -6.55946,0 -9.70139,2.8112 -3.30729,2.92144 -3.30729,10.30773 0,4.51996 3.08681,7.88237 1.48828,1.65365 5.78776,3.52778 3.5829,1.43316 7.16579,2.92144 7.11068,3.08681 8.37848,3.80339 4.13411,2.25998 7.00043,5.45703 4.24436,4.79557 4.24436,12.73307 z"
           style="font-style:normal;font-variant:normal;font-weight:normal;font-stretch:normal;font-size:112.8888855px;font-family:'Californian FB';-inkscape-font-specification:'Californian FB, Normal';font-variant-ligatures:normal;font-variant-caps:normal;font-variant-numeric:normal;font-feature-settings:normal;text-align:start;writing-mode:lr-tb;text-anchor:start;fill:#ffffff;fill-opacity:1;stroke-width:0.26458332"
           id="path977" />
        <path
           d="m 479.72265,243.49238 q 0,0.55121 -0.33073,0.55121 h -25.41103 q -0.55121,0 -0.55121,-0.66145 v -1.48829 q 0,-0.7717 0.55121,-0.7717 h 7.55165 q 0.88195,0 0.71658,-0.99218 -0.49609,-1.76389 -3.80338,-11.46528 -3.30729,-9.75651 -3.63802,-10.47309 -0.44097,-1.10243 -1.15755,-1.10243 h -26.6237 q -0.4961,0.11024 -0.82682,0.66146 -0.77171,1.48828 -2.64584,7.00043 -1.87413,5.45703 -2.3151,7.44141 -0.88195,4.40972 -0.88195,5.29166 0,3.63802 0.88195,3.63802 h 8.37847 q 0.66146,0 0.66146,0.7717 v 1.59853 q 0,0.55121 -0.55122,0.55121 h -22.26909 q -0.55122,0 -0.55122,-0.55121 v -1.81901 q 0,-0.55122 0.44097,-0.55122 h 4.74045 q 1.21268,0 3.25217,-5.18142 2.09462,-5.18142 12.34723,-29.93099 6.55946,-15.59939 15.93012,-37.81337 0.60633,-1.70876 1.21267,-1.92925 1.5434,-0.44097 3.96875,-1.37804 0.38585,-0.16536 0.88195,0.60634 0.49609,0.71658 -0.44098,1.65365 -1.65364,1.70876 -1.65364,3.30729 -0.0551,1.65364 0.7717,4.13411 2.97656,8.26823 10.7487,30.9783 7.77213,22.65495 10.80382,29.32465 2.92144,6.22873 4.18923,6.22873 h 5.18143 q 0.44097,0 0.44097,0.7717 z m -27.28516,-31.41927 q -2.25998,-6.55946 -4.85069,-14.38672 -2.59071,-7.82726 -5.34679,-16.31597 -0.16537,-0.71658 -0.44097,-0.88195 -0.22049,0.22049 -0.55122,0.88195 -6.89019,16.86719 -9.92187,23.92274 -2.97657,7.05556 -2.97657,7.27604 0,0.33073 0.4961,0.33073 h 23.3164 q 0.55122,0 0.27561,-0.82682 z"
           style="font-style:normal;font-variant:normal;font-weight:normal;font-stretch:normal;font-size:112.8888855px;font-family:'Californian FB';-inkscape-font-specification:'Californian FB, Normal';font-variant-ligatures:normal;font-variant-caps:normal;font-variant-numeric:normal;font-feature-settings:normal;text-align:start;writing-mode:lr-tb;text-anchor:start;fill:#ffffff;fill-opacity:1;stroke-width:0.26458332"
           id="path979" />
        <path
           d="m 556.50694,243.38214 q 0,0.66145 -0.44097,0.66145 h -17.9145 q -0.60633,0 -1.37803,-0.66145 -2.09462,-1.81901 -7.71702,-9.26042 -2.97656,-4.02387 -5.95312,-8.04774 -3.30729,-4.96094 -9.15018,-15.43403 -0.38585,-0.93707 -0.88194,-0.93707 -2.59071,0 -9.15017,-0.66145 -0.88195,-0.27561 -0.88195,0.55121 0,1.04731 0.0551,7.00043 0.0551,5.89801 0.0551,12.45747 0,12.07161 2.48047,12.07161 h 9.81164 q 0.55121,0 0.55121,0.55122 v 1.81901 q 0,0.55121 -0.44097,0.55121 h -29.21441 q -0.49609,0 -0.60634,-0.16536 -0.11024,-0.16536 -0.11024,-0.38585 v -1.70877 q 0,-0.49609 0.16536,-0.55121 0.16537,-0.11025 0.44098,-0.11025 h 7.22092 q 0.88194,0 0.88194,-1.70876 v -29.4349 q 0,-22.82031 0,-22.82031 -0.11024,-15.15842 -1.92925,-15.15842 h -7.00044 q -0.55121,0 -0.55121,-0.44097 v -2.0395 q 0,-0.44097 0.44097,-0.44097 h 16.48134 q 0.7717,0 6.28385,-0.22049 5.56727,-0.22048 6.22873,-0.22048 3.5829,0 7.00044,0.55121 7.60677,1.21268 12.23698,5.67752 5.40191,5.1263 5.40191,12.95356 0,8.92968 -5.29167,14.66232 -3.25217,3.52778 -10.63846,6.00825 -0.44097,0.22049 -0.33072,0.66146 2.42534,6.33897 11.18966,16.26085 4.57509,5.18142 6.66971,7.4414 3.69314,3.85851 6.28385,5.78776 3.52778,2.59072 8.81945,2.59072 0.88194,0 0.88194,0.44097 z M 529.773,190.74108 q 0,-7.33116 -4.85069,-11.96137 -6.77995,-6.3941 -19.62327,-6.3941 -1.87413,0 -2.03949,0.7717 0,15.81988 -0.22049,19.73351 0,0 0,12.56771 0,0.60633 0.7717,0.7717 1.2678,0.22048 7.00044,0.22048 2.37022,0 5.29166,-0.44097 2.97657,-0.44097 2.70096,-0.44097 10.96918,-2.86632 10.96918,-14.82769 z"
           style="font-style:normal;font-variant:normal;font-weight:normal;font-stretch:normal;font-size:112.8888855px;font-family:'Californian FB';-inkscape-font-specification:'Californian FB, Normal';font-variant-ligatures:normal;font-variant-caps:normal;font-variant-numeric:normal;font-feature-settings:normal;text-align:start;writing-mode:lr-tb;text-anchor:start;fill:#ffffff;fill-opacity:1;stroke-width:0.26458332"
           id="path981" />
      </g>
      <g
         aria-label="REALTORS"
         style="font-style:normal;font-variant:normal;font-weight:bold;font-stretch:normal;font-size:63.5px;line-height:1.25;font-family:'Californian FB';-inkscape-font-specification:'Californian FB, Bold';font-variant-ligatures:normal;font-variant-caps:normal;font-variant-numeric:normal;font-feature-settings:normal;text-align:start;letter-spacing:0px;word-spacing:0px;writing-mode:lr-tb;text-anchor:start;fill:#ffffff;fill-opacity:1;stroke:none;stroke-width:0.26458332"
         id="text3535">
        <path
           d="m 275.18733,294.01514 q 0,0.37207 -0.27905,0.37207 h -11.03809 q -0.74414,0 -1.20923,-0.37207 -1.64331,-1.39527 -8.06152,-9.73584 -2.91455,-3.78272 -5.02295,-8.30957 -0.21704,-0.4961 -0.49609,-0.4961 -1.70532,-0.15503 -4.2478,-0.40307 -0.5271,-0.062 -0.5271,0.46508 0,-0.5581 0.031,2.88355 0.031,3.44165 0.031,7.13135 0,6.79028 1.45727,6.79028 h 5.08496 q 0.34107,0 0.34107,0.34106 v 1.39527 q 0,0.31006 -0.27905,0.31006 h -17.27027 q -0.43408,0 -0.43408,-0.31006 v -1.33325 q 0,-0.40308 0.37207,-0.40308 h 3.62769 q 0.5581,0 0.5581,-0.93018 v -16.46411 q 0,-12.06128 0,-12.06128 -0.062,-8.37158 -1.11621,-8.37158 h -3.56567 q -0.31006,0 -0.31006,-0.31006 v -1.39526 q 0,-0.31006 0.24805,-0.34106 l 9.76684,-0.24805 q 4.89893,-0.12403 7.3794,-0.12403 2.6665,0 4.43383,0.24805 4.55786,0.65112 7.56543,3.25562 3.41065,2.94555 3.41065,7.28637 0,4.89893 -3.34864,8.24756 -1.92236,1.92237 -5.98413,3.37964 -0.24804,0.12402 -0.18603,0.37207 2.72851,4.86792 6.41821,8.83667 2.88355,3.06958 3.84473,4.06177 2.07739,2.07739 3.59668,3.10058 2.07739,1.45728 4.61987,1.45728 0.58911,0 0.58911,0.40308 z m -16.34009,-29.48658 q 0,-4.12377 -2.72851,-6.72827 -3.59668,-3.41064 -10.54199,-3.41064 -1.08521,0 -1.20923,0.62012 0,8.52661 -0.12403,10.72802 0,0 0,6.60425 0,0.49609 0.46509,0.58911 1.17823,0.18604 3.47266,0.12403 3.10058,-0.093 4.58887,-0.5271 6.07714,-1.67432 6.07714,-7.99952 z"
           style="font-style:normal;font-variant:normal;font-weight:bold;font-stretch:normal;font-size:63.5px;font-family:'Californian FB';-inkscape-font-specification:'Californian FB, Bold';font-variant-ligatures:normal;font-variant-caps:normal;font-variant-numeric:normal;font-feature-settings:normal;text-align:start;writing-mode:lr-tb;text-anchor:start;fill:#ffffff;fill-opacity:1;stroke-width:0.26458332"
           id="path984" />
        <path
           d="m 312.64241,288.99219 q -1.30225,2.26343 -2.91455,5.02295 -0.24805,0.37207 -0.71314,0.37207 h -30.78881 q -0.31006,0 -0.31006,-0.37207 v -1.33326 q 0,-0.34106 0.24804,-0.34106 h 4.83692 q 0.40307,0 0.49609,-0.12402 0.12403,-0.15503 0.12403,-0.4961 0,-0.27905 -0.062,-9.33276 -0.062,-9.08472 -0.062,-9.36377 0,-0.31006 -0.031,-6.13916 -0.031,-5.86011 -0.031,-6.20117 0,-6.29419 -1.27124,-6.29419 h -3.93774 q -0.31006,0 -0.31006,-0.31006 v -1.42627 q 0,-0.15503 0.062,-0.21704 0.062,-0.093 0.31006,-0.093 h 29.14551 q 0.58911,0 1.64331,-0.062 1.0542,-0.062 1.02319,-0.062 0.40308,0 0.31006,0.31006 -0.55811,2.04638 -1.39527,4.65088 -0.27905,0.68212 -0.62011,0.68212 0.031,0 -0.58911,-0.5581 -1.33326,-1.27124 -3.81372,-1.70532 -6.41822,-1.14722 -13.45655,-1.20923 -0.49609,0 -0.49609,0.37207 -0.12402,10.66601 -0.12402,15.25488 0,0.62012 0.49609,0.62012 h 13.73559 q 0.37208,0 0.4961,-0.4961 0.21704,-1.64331 0.49609,-3.62768 0,-0.58911 0.40308,-0.58911 h 1.27124 q 0.43408,0 0.43408,0.5271 0,0.12402 -0.12402,2.60449 -0.12403,2.44946 -0.12403,2.91455 0,0.46509 0.062,3.25562 0.062,2.79052 0.062,2.97656 0,0.68213 -0.40308,0.68213 h -1.33325 q -0.37207,0 -0.37207,-0.43408 0,-1.27124 -0.37207,-4.7129 -0.062,-0.62011 -0.58911,-0.62011 -0.24805,0 -6.8833,-0.12403 -6.63526,-0.12402 -6.82129,-0.12402 -0.37207,0 -0.37207,0.55811 v 11.87524 q 0,7.13135 1.64331,7.13135 13.2395,0 19.25464,-3.19361 1.42627,-0.74414 1.45727,-0.74414 0.093,0 0.24805,0.18604 0.15503,0.18603 0.062,0.31006 z"
           style="font-style:normal;font-variant:normal;font-weight:bold;font-stretch:normal;font-size:63.5px;font-family:'Californian FB';-inkscape-font-specification:'Californian FB, Bold';font-variant-ligatures:normal;font-variant-caps:normal;font-variant-numeric:normal;font-feature-settings:normal;text-align:start;writing-mode:lr-tb;text-anchor:start;fill:#ffffff;fill-opacity:1;stroke-width:0.26458332"
           id="path986" />
        <path
           d="m 356.39168,294.07715 q 0,0.31006 -0.18604,0.31006 h -15.19287 q -0.18603,0 -0.18603,-0.37207 v -1.20923 q 0,-0.46509 0.40307,-0.46509 h 3.72071 q 0.46508,0 0.40307,-0.55811 -0.031,-0.093 -0.062,-0.24804 -0.18603,-0.62012 -2.04639,-5.89112 -1.95337,-5.42602 -2.17041,-5.8601 -0.21704,-0.65113 -0.68213,-0.65113 h -14.78979 q -0.37207,0.093 -0.5271,0.40308 -1.55029,4.43384 -2.54248,7.84448 -0.74414,2.23242 -0.93018,3.96875 0.062,0.99219 0.55811,0.99219 h 4.65088 q 0.37207,0 0.37207,0.46509 v 1.27124 q 0,0.31006 -0.31006,0.31006 h -13.14648 q -0.34107,0 -0.34107,-0.31006 v -1.39527 q 0,-0.34106 0.27905,-0.34106 h 2.32544 q 0.58911,0 1.5503,-1.82935 3.62768,-8.52661 7.47241,-17.51831 7.10034,-16.21606 8.06152,-18.23144 0.83716,-1.70532 1.33325,-3.03858 0.40308,-1.02319 0.71314,-1.0852 1.55029,-0.24805 3.6897,-0.71314 0.37207,-0.12402 0.43408,-0.12402 0.24804,0 0.46509,0.24805 0.21704,0.24804 0.21704,0.58911 -0.15503,0.21704 -0.31006,0.40308 -0.12403,0.15502 -0.62012,0.80615 -0.58911,0.77514 -0.58911,1.33325 0,0.55811 0.46509,2.35645 0.49609,2.04638 3.10058,8.61962 0.43409,1.08521 3.93775,10.85205 3.22461,8.9917 5.58105,13.85962 1.70532,3.47266 2.41846,3.47266 h 2.23242 q 0.24805,0 0.24805,0.46509 z m -16.65015,-17.61133 q -0.37207,-1.11621 -2.91455,-8.12353 -1.11621,-3.53467 -2.35644,-7.41041 -0.31006,-1.0852 -0.74415,-1.0852 -0.43408,0 -0.83715,1.0852 -1.17823,2.85254 -2.6045,6.35621 -1.79834,4.21679 -3.81372,8.9917 -0.12402,0.40307 -0.12402,0.49609 0.031,0.15503 0.24805,0.15503 h 13.02246 q 0.27905,0 0.12402,-0.46509 z"
           style="font-style:normal;font-variant:normal;font-weight:bold;font-stretch:normal;font-size:63.5px;font-family:'Californian FB';-inkscape-font-specification:'Californian FB, Bold';font-variant-ligatures:normal;font-variant-caps:normal;font-variant-numeric:normal;font-feature-settings:normal;text-align:start;writing-mode:lr-tb;text-anchor:start;fill:#ffffff;fill-opacity:1;stroke-width:0.26458332"
           id="path988" />
        <path
           d="m 394.00179,289.17822 q 0,0.46509 -1.20923,2.48047 -0.031,0.062 -1.08521,2.1084 -0.31006,0.62012 -0.68213,0.62012 h -31.37793 q -0.37207,0 -0.37207,-0.31006 v -1.39527 q 0,-0.34106 0.31006,-0.34106 h 4.12378 q 0.55811,0 0.55811,-0.62012 0,0.031 -0.093,-2.51147 -0.093,-2.54248 -0.093,-4.40283 0,-2.88355 0.12402,-12.46436 0.15503,-9.58081 0.15503,-11.34814 0,-6.60425 -1.27124,-6.60425 h -2.88354 q -0.4961,0 -0.4961,-0.40308 v -1.24023 q 0,-0.40308 0.43409,-0.40308 h 17.61132 q 0.31006,0 0.31006,0.24805 v 1.48828 q 0,0.31006 -0.24804,0.31006 h -5.7981 q -0.5271,0 -0.62012,0.43408 -0.093,0.40308 -0.27905,14.88281 -0.15503,13.42554 -0.15503,15.53394 0,7.19336 1.64331,7.19336 7.47241,0 11.28614,-0.34107 4.34082,-0.34106 8.71264,-2.91455 0.74414,-0.43408 1.02319,-0.43408 0.37208,0.21704 0.37208,0.43408 z"
           style="font-style:normal;font-variant:normal;font-weight:bold;font-stretch:normal;font-size:63.5px;font-family:'Californian FB';-inkscape-font-specification:'Californian FB, Bold';font-variant-ligatures:normal;font-variant-caps:normal;font-variant-numeric:normal;font-feature-settings:normal;text-align:start;writing-mode:lr-tb;text-anchor:start;fill:#ffffff;fill-opacity:1;stroke-width:0.26458332"
           id="path990" />
        <path
           d="m 434.15437,252.65332 q -0.21704,1.48828 -1.14721,5.02295 -0.12403,0.46509 -0.77515,0.46509 -0.71313,0 -0.96118,-0.5271 -0.62012,-1.33325 -2.07739,-1.70532 -1.0232,-0.27906 -5.39502,-0.65113 -4.15479,-0.37207 -5.64307,-0.37207 -0.43408,0 -0.46509,0.43408 -0.37207,8.03052 -0.37207,28.58741 0,8.43359 1.45728,8.43359 h 4.96093 q 0.18604,0 0.18604,0.27905 v 1.45728 q 0,0.31006 -0.18604,0.31006 h -17.92138 q -0.31006,0 -0.31006,-0.31006 v -1.39527 q 0,-0.34106 0.31006,-0.34106 h 4.52685 q 0.55811,0 0.55811,-0.68213 0,-0.093 -0.062,-3.1626 -0.062,-3.06958 -0.062,-3.68969 0,-0.5271 0.15502,-10.573 0.15503,-10.07691 0.15503,-10.51099 0,-8.89868 -1.02319,-8.89868 -7.16235,0 -11.53418,1.27124 -1.02319,0.31006 -2.01538,1.33325 -0.99219,0.99219 -1.36426,1.08521 -0.93017,0.12402 -1.20923,-0.24805 -0.24804,-0.27905 0.18604,-1.02319 0.80615,-2.72852 1.6123,-4.96094 0.12403,-0.40308 0.68213,-0.31006 0.5271,0.062 7.65845,0.37207 7.62744,0.31006 10.32495,0.31006 8.9917,0 16.86719,-0.24805 0.93017,-0.031 1.73633,-0.12402 0.71313,-0.12402 0.68213,-0.12402 0.46508,0 0.46508,0.49609 z"
           style="font-style:normal;font-variant:normal;font-weight:bold;font-stretch:normal;font-size:63.5px;font-family:'Californian FB';-inkscape-font-specification:'Californian FB, Bold';font-variant-ligatures:normal;font-variant-caps:normal;font-variant-numeric:normal;font-feature-settings:normal;text-align:start;writing-mode:lr-tb;text-anchor:start;fill:#ffffff;fill-opacity:1;stroke-width:0.26458332"
           id="path992" />
        <path
           d="m 480.3221,272.40405 q 0,9.30176 -4.86792,15.3169 -3.34863,4.12378 -9.08472,5.95312 -3.34863,1.08521 -7.9375,1.08521 -7.28638,0 -11.6272,-2.0774 -2.91455,-1.39526 -4.83691,-3.50366 -4.80591,-5.27099 -4.80591,-15.44092 0,-4.2788 1.20923,-7.9375 1.36426,-4.15478 4.37183,-7.4104 3.00756,-3.25561 7.99951,-5.08496 3.81372,-1.39526 8.30957,-1.39526 6.63525,0 10.604,1.70532 4.15479,1.79834 6.48023,4.83692 4.18579,5.45703 4.18579,13.95263 z m -7.10034,1.5503 q 0,-4.77491 -0.83716,-7.68946 -0.99219,-3.53467 -3.41065,-6.60425 -1.98437,-2.51147 -5.08496,-3.87573 -3.31762,-1.45727 -6.66626,-1.45727 -4.03076,0 -6.29419,1.45727 -3.22461,2.07739 -4.80591,5.95313 -1.79833,4.30981 -1.79833,10.35595 0,8.9917 3.13159,14.29371 1.82934,3.13159 5.70507,5.08496 2.91456,1.45727 6.60425,1.45727 3.87574,0 7.28638,-2.41846 2.6355,-1.82934 4.52686,-6.29418 1.64331,-3.87574 1.64331,-10.26294 z"
           style="font-style:normal;font-variant:normal;font-weight:bold;font-stretch:normal;font-size:63.5px;font-family:'Californian FB';-inkscape-font-specification:'Californian FB, Bold';font-variant-ligatures:normal;font-variant-caps:normal;font-variant-numeric:normal;font-feature-settings:normal;text-align:start;writing-mode:lr-tb;text-anchor:start;fill:#ffffff;fill-opacity:1;stroke-width:0.26458332"
           id="path994" />
        <path
           d="m 527.20296,294.01514 q 0,0.37207 -0.27906,0.37207 h -11.03808 q -0.74414,0 -1.20923,-0.37207 -1.64331,-1.39527 -8.06152,-9.73584 -2.91455,-3.78272 -5.02295,-8.30957 -0.21704,-0.4961 -0.4961,-0.4961 -1.70532,-0.15503 -4.2478,-0.40307 -0.5271,-0.062 -0.5271,0.46508 0,-0.5581 0.031,2.88355 0.031,3.44165 0.031,7.13135 0,6.79028 1.45728,6.79028 h 5.08496 q 0.34106,0 0.34106,0.34106 v 1.39527 q 0,0.31006 -0.27905,0.31006 h -17.27026 q -0.43408,0 -0.43408,-0.31006 v -1.33325 q 0,-0.40308 0.37207,-0.40308 h 3.62768 q 0.55811,0 0.55811,-0.93018 v -16.46411 q 0,-12.06128 0,-12.06128 -0.062,-8.37158 -1.11621,-8.37158 h -3.56568 q -0.31006,0 -0.31006,-0.31006 v -1.39526 q 0,-0.31006 0.24805,-0.34106 l 9.76685,-0.24805 q 4.89892,-0.12403 7.37939,-0.12403 2.6665,0 4.43384,0.24805 4.55786,0.65112 7.56543,3.25562 3.41064,2.94555 3.41064,7.28637 0,4.89893 -3.34863,8.24756 -1.92236,1.92237 -5.98413,3.37964 -0.24805,0.12402 -0.18604,0.37207 2.72852,4.86792 6.41822,8.83667 2.88354,3.06958 3.84472,4.06177 2.0774,2.07739 3.59668,3.10058 2.0774,1.45728 4.61988,1.45728 0.58911,0 0.58911,0.40308 z m -16.34009,-29.48658 q 0,-4.12377 -2.72852,-6.72827 -3.59668,-3.41064 -10.54199,-3.41064 -1.0852,0 -1.20923,0.62012 0,8.52661 -0.12402,10.72802 0,0 0,6.60425 0,0.49609 0.46509,0.58911 1.17822,0.18604 3.47265,0.12403 3.10059,-0.093 4.58887,-0.5271 6.07715,-1.67432 6.07715,-7.99952 z"
           style="font-style:normal;font-variant:normal;font-weight:bold;font-stretch:normal;font-size:63.5px;font-family:'Californian FB';-inkscape-font-specification:'Californian FB, Bold';font-variant-ligatures:normal;font-variant-caps:normal;font-variant-numeric:normal;font-feature-settings:normal;text-align:start;writing-mode:lr-tb;text-anchor:start;fill:#ffffff;fill-opacity:1;stroke-width:0.26458332"
           id="path996" />
        <path
           d="m 558.23982,283.2251 q 0,4.65088 -3.75171,8.12353 -2.1084,1.92237 -4.52685,2.72852 -2.57349,0.80615 -6.8833,0.80615 -6.17017,0 -11.68921,-2.91455 -0.46509,-0.21704 -0.46509,-1.27124 0,-0.21704 -0.031,-3.78272 -0.031,-3.56567 -0.031,-3.84472 0,-0.37207 0.65112,-0.37207 h 1.27124 q 0.55811,0 0.62012,0.37207 0,1.14722 0.18603,2.23242 0.4961,2.79053 2.88355,4.86792 2.41846,2.04639 6.66626,2.04639 5.76709,0 7.9375,-3.72071 0.93017,-1.67431 0.93017,-4.40283 0,-2.44946 -1.70532,-3.93774 -1.67431,-1.92237 -6.60425,-3.47266 -5.48803,-1.73633 -8.80566,-4.55786 -3.31763,-2.85254 -3.31763,-8.52661 0,-5.23999 4.61988,-8.96069 3.59668,-2.85254 9.33276,-2.85254 6.3252,0 9.92188,2.79052 0.49609,0.40308 0.5581,0.83716 0.34106,2.04639 0.34106,6.38721 0,0.65112 -0.27905,0.65112 h -1.51928 q -0.34107,0 -0.43409,-0.37207 -0.24804,-1.0852 -0.65112,-2.35644 -0.58911,-1.89136 -2.26343,-3.06958 -2.88354,-1.95337 -7.37939,-1.95337 -3.44165,0 -5.33301,1.82934 -2.1084,2.0774 -2.01538,5.39502 0.062,2.23242 2.01538,4.34082 0.99219,1.0542 7.13135,3.47266 3.65869,1.45727 5.302,2.32544 2.75952,1.45727 4.65088,3.34863 2.6665,2.6665 2.6665,7.81348 z"
           style="font-style:normal;font-variant:normal;font-weight:bold;font-stretch:normal;font-size:63.5px;font-family:'Californian FB';-inkscape-font-specification:'Californian FB, Bold';font-variant-ligatures:normal;font-variant-caps:normal;font-variant-numeric:normal;font-feature-settings:normal;text-align:start;writing-mode:lr-tb;text-anchor:start;fill:#ffffff;fill-opacity:1;stroke-width:0.26458332"
           id="path998" />
      </g>
    </g>
  </g>
</svg>
